<svg id="Layer_1" data-name="Layer 1" xmlns="http://www.w3.org/2000/svg" viewBox="0 0 607.83065 625.91314">
  <path id="danger" d="M614.43166,599.10573l-35.38738-35.83358L550.43,534.29713,122.205,100.67275,93.45018,71.55543,47.21981,24.7421A19.87833,19.87833,0,0,0,19.11,24.37939q-.31188.30391-.61019.62127a21.40043,21.40043,0,0,0,.26658,29.61066L62.61562,99.01346l28.33979,28.69717,431.07385,436.509,28.41743,28.7758,35.53153,35.9795a19.87911,19.87911,0,0,0,28.111.36157q.31131-.30339.60906-.62014A21.39906,21.39906,0,0,0,614.43166,599.10573Z" transform="translate(-12.68394 -18.73734)"/>
  <g id="dark">
    <path d="M293.87338,384.64443c-25.00178-25.00178-60.31983-37.2825-95.29106-32.068a130.69523,130.69523,0,0,0-89.17676,55.71881q-.85263,1.24659-1.68555,2.51813c-14.19775,21.67645-27.56354,43.89789-41.32422,65.86084-1.15655,1.846-2.41418,3.62848-4.35882,6.53912-.02436-.21039-.0492-.40228-.07392-.60168a3.21773,3.21773,0,0,1-5.89-1.18811A147.15254,147.15254,0,0,1,54.07,457.1837V230.53319A146.16532,146.16532,0,0,1,67.749,168.692a10.92236,10.92236,0,0,0-2.16745-12.33947l-16.1384-16.1384a8.498,8.498,0,0,0-13.50589,2.05028,186.439,186.439,0,0,0-22.13,88.26874V453.97185c0,105.30884,85.36968,190.67852,190.67853,190.67852H427.92448a186.355,186.355,0,0,0,88.26712-22.13216,8.49807,8.49807,0,0,0,2.05-13.50558Z" transform="translate(-12.68394 -18.73734)"/>
    <path d="M474.31956,565.81621l-.32807-.37384" transform="translate(-12.68394 -18.73734)"/>
    <path d="M615.39127,457.18358V230.53319c0-103.53509-83.93177-187.46686-187.46685-187.46686H201.27409a185.89316,185.89316,0,0,0-56.53019,8.75773,8.475,8.475,0,0,0-3.3725,14.06535l17.9819,17.9819a10.99487,10.99487,0,0,0,10.17614,2.917,146.10435,146.10435,0,0,1,31.74471-3.45921H427.92448a147.2041,147.2041,0,0,1,147.2041,147.2041V457.18352a145.86467,145.86467,0,0,1-3.46148,31.74025,10.99508,10.99508,0,0,0,2.91663,10.178l18.005,18.005a8.47477,8.47477,0,0,0,14.06636-3.37594A186.164,186.164,0,0,0,615.39127,457.18358Z" transform="translate(-12.68394 -18.73734)"/>
    <path d="M488.164,245.04765c.29926-32.72363-26.5838-59.90558-59.36133-60.0213a59.731,59.731,0,0,0-59.856,59.4682c-.0459,32.79871,26.915,59.82056,59.6325,59.76715C461.039,304.20879,487.86686,277.54771,488.164,245.04765Z" transform="translate(-12.68394 -18.73734)"/>
  </g>
</svg>
