<svg id="_2" data-name="2" xmlns="http://www.w3.org/2000/svg" viewBox="0 0 784.4209 730.67952">
  <defs>
    <style>
      .cls-1 {
        fill: #e8d700;
      }
    </style>
  </defs>
  <path id="light" class="cls-1" d="M787.60543,46.9917c-9.225,6.724-41.40162,20.80245-93.46615,6.169-52.55317-14.75329-99.70309,23.31644-116.58556,41.13754L518.70644,53.82416a10.60769,10.60769,0,0,0-7.54434-1.78035L352.7273,74.98264a10.66512,10.66512,0,0,0-7.40447,4.75148L247.019,232.40944a10.55888,10.55888,0,0,1-4.73849,4.01054L122.43029,287.82017a10.76,10.76,0,0,0-5.33575,5.08651L74.78682,379.29536a44.043,44.043,0,0,1-17.39463-1.07548A35.88472,35.88472,0,0,1,38.92028,365.8427,44.6559,44.6559,0,0,1,29.92691,343.84c-1.44828-11.3325.75471-24.11333,7.84521-36.32,7.0689-12.17863,19.0154-23.85929,37.53637-32.71422,25.03475-11.96532,42.80552-23.95805,55.47617-35.33907,29.49752-7.17964,32.40277-33.75626,29.77024-54.58711-.04262-1.3361-.123-2.56124-.24753-3.518a22.53162,22.53162,0,0,0-.50577-2.66965l-.20346.05342a125.34613,125.34613,0,0,0-5.52268-20.40244s.17451,9.62978-17.51435,20.42843c-26.1704,11.32366-31.08214,33.40085-26.11729,48.50931-10.49776,8.46871-24.88841,17.732-44.8235,27.24577-22.117,10.53339-37.81372,25.33335-47.28125,41.71619-9.5223,16.363-12.832,34.1815-10.70757,50.50137,2.1212,16.295,9.70025,31.27362,21.992,41.64238A58.43331,58.43331,0,0,0,51.26423,399.851a65.35774,65.35774,0,0,0,20.74123,1.92931L86.13618,521.85454a9.99,9.99,0,0,1,.04562,1.967l-6.71487,98.74742a10.43628,10.43628,0,0,1-.91939,3.64466L22.40582,751.56546a10.63877,10.63877,0,0,0,7.06,14.6253L71.8275,777.01017a10.68512,10.68512,0,0,0,11.18628-3.98123l73.164-99.29531a1.10293,1.10293,0,0,0,.16018-.17908l80.694-104.87954L443.99907,417.05709l39.28711,41.15181a10.60845,10.60845,0,0,1-1.88412,16.239l-67.31182,43.8237a10.61481,10.61481,0,0,0-3.015,14.8325l11.89145,17.60047a10.61391,10.61391,0,0,0,14.05481,3.29967L574.7842,475.52161a10.59653,10.59653,0,0,0,4.40838-13.62L532.63212,359.8324a10.68129,10.68129,0,0,1,.49065-9.77025l7.508-12.84011a10.58659,10.58659,0,0,1,15.64551-3.06351l51.74556,39.663a10.59242,10.59242,0,0,0,11.25986,1.0324L669.072,349.59271a10.57588,10.57588,0,0,0,5.81849-9.25342l3.105-151.53963c44.15062-8.168,41.86348-47.16537,41.86348-47.16537l-63.00552-5.134c9.0635-10.99058,21.85033-23.7031,36.14191-29.69284,21.1041-8.82253,47.86919-6.07311,73.36765-20.33432C791.85844,72.18871,795.76709,43.2207,787.60543,46.9917Z" transform="translate(-7.01429 -46.65626)"/>
  <path id="dark" d="M425.75832,169.06122l145.20829,41.76984a25.226,25.226,0,0,1,17.70844,19.03265l30.60666,144.99021a10.59242,10.59242,0,0,1-11.25986-1.0324l-51.74556-39.663a10.58659,10.58659,0,0,0-15.64551,3.06351l-7.508,12.84011a10.68129,10.68129,0,0,0-.49065,9.77025l46.56046,102.06917a10.59653,10.59653,0,0,1-4.40838,13.62L437.02154,554.00425a10.61391,10.61391,0,0,1-14.05481-3.29967l-11.89145-17.60047a10.61481,10.61481,0,0,1,3.015-14.8325l67.31182-43.8237a10.60845,10.60845,0,0,0,1.88412-16.239l-39.28711-41.15181L237.03189,568.675l-80.694,104.87954a1.10293,1.10293,0,0,1-.16018.17908L83.01378,773.02894a10.68512,10.68512,0,0,1-11.18628,3.98123L29.46585,766.19076a10.63877,10.63877,0,0,1-7.06-14.6253L78.54754,626.21359a10.43628,10.43628,0,0,0,.91939-3.64466l6.71487-98.74742a9.99,9.99,0,0,0-.04562-1.967L72.00546,401.78035A65.35774,65.35774,0,0,1,51.26423,399.851a58.43331,58.43331,0,0,1-21.64078-11.46469C17.33175,378.01759,9.7527,363.039,7.6315,346.744,5.50706,330.4241,8.81677,312.60562,18.33907,296.2426c9.46753-16.38284,25.16424-31.1828,47.28125-41.71619,19.93509-9.51373,34.32574-18.77706,44.8235-27.24577-4.96485-15.10846-.05311-37.18565,26.11729-48.50931,17.68886-10.79865,17.51435-20.42843,17.51435-20.42843a125.34613,125.34613,0,0,1,5.52268,20.40244l.20346-.05342a22.53162,22.53162,0,0,1,.50577,2.66965c.12454.95679.20491,2.18193.24753,3.518,2.63253,20.83085-.27272,47.40747-29.77024,54.58711-12.67065,11.381-30.44142,23.37375-55.47617,35.33907C56.78752,283.66071,44.841,295.34137,37.77212,307.52c-7.0905,12.20667-9.29349,24.9875-7.84521,36.32a44.6559,44.6559,0,0,0,8.99337,22.0027,35.88472,35.88472,0,0,0,18.47191,12.37718,44.043,44.043,0,0,0,17.39463,1.07548l42.30772-86.38868a10.76,10.76,0,0,1,5.33575-5.08651L397.83655,170.76383A41.82357,41.82357,0,0,1,425.75832,169.06122Z" transform="translate(-7.01429 -46.65626)"/>
</svg>
