<?xml version="1.0" encoding="utf-8"?>
<!-- Generator: Adobe Illustrator 24.0.1, SVG Export Plug-In . SVG Version: 6.00 Build 0)  -->
<svg version="1.1" xmlns="http://www.w3.org/2000/svg" xmlns:xlink="http://www.w3.org/1999/xlink" x="0px" y="0px"
	 viewBox="0 0 1826 1826" style="enable-background:new 0 0 1826 1826;" xml:space="preserve">
<style type="text/css">
	.st0{stroke:#FFFFFF;stroke-miterlimit:10;}
	.st1{fill:none;stroke:#FFFFFF;stroke-width:20;stroke-miterlimit:10;}
	.st2{fill:#3DA2FF;}
	.st3{font-family:'Impact';}
	.st4{font-size:150px;}
	.st5{fill:#FFFFFF;}
	.st6{fill:#FCB608;}
	.st7{font-size:75px;}
	.st8{fill:#3EA3FF;}
	.st9{fill:#00E7F9;}
	.st10{fill:#FF5A00;}
	.st11{fill:#91D82B;}
</style>
<g id="Layer_2">
	<rect class="st0" width="1826" height="1826"/>
	<rect x="427.2" y="550.5" class="st1" width="821.6" height="559.7"/>
	<text transform="matrix(1 0 0 1 513.4258 1458.871)"><tspan x="0" y="0" class="st2 st3 st4">Wonder</tspan><tspan x="485.6" y="0" class="st5 st3 st4">Box</tspan></text>
	<text transform="matrix(1 0 0 1 1156.3699 1329.9868)" class="st6 st3 st7">Media</text>
</g>
<g id="Layer_5">
	<g>
		<g>
			<g>
				<path class="st8" d="M566.2,401.3v576.1h606.5c0-41.9,33.9-75.8,75.8-75.8s75.8,33.9,75.8,75.8h60.6V401.3H566.2z"/>
			</g>
			<g>
				<path class="st6" d="M626.9,795.5h60.6v121.3h-60.6V795.5z"/>
			</g>
			<g>
				<path class="st6" d="M748.2,825.8h60.6v91h-60.6V825.8z"/>
			</g>
			<g>
				<path class="st6" d="M869.5,704.5h60.6v212.3h-60.6V704.5z"/>
			</g>
			<g>
				<path class="st6" d="M1051.4,765.1v98.9c-9.5,16.3-17.1,34.1-22.2,52.7h-38.5V765.1H1051.4z"/>
			</g>
			<g>
				<path class="st9" d="M1248.5,841c-75.4,0-136.5,61-136.5,136.5c0,24.8,6.6,48.1,18.4,68.2c23.5,40.7,67.7,68.2,118.1,68.2
					s94.6-27.5,118.1-68.2c11.8-20.1,18.4-43.4,18.4-68.2C1385,902,1323.9,841,1248.5,841z M1248.5,1053.2
					c-41.9,0-75.8-33.9-75.8-75.8s33.9-75.8,75.8-75.8s75.8,33.9,75.8,75.8S1290.4,1053.2,1248.5,1053.2z"/>
			</g>
			<g>
				<path class="st6" d="M1366.6,1045.6l78.8,45.5c-39.4,67.8-112.8,113.7-196.9,113.7c-84.1,0-157.5-45.9-196.9-113.7l78.8-45.5
					c23.5,40.7,67.7,68.2,118.1,68.2S1343.1,1086.4,1366.6,1045.6L1366.6,1045.6z"/>
			</g>
			<g>
				<path class="st10" d="M1475.9,977.4c0,41.3-11,80.4-30.5,113.7l-78.8-45.5c11.8-20.1,18.4-43.4,18.4-68.2
					c0-75.4-61-136.5-136.5-136.5v-91c51.2,0,98.5,17.1,136.5,45.5C1440.1,837,1475.9,903.1,1475.9,977.4z"/>
			</g>
			<g>
				<path class="st11" d="M1248.5,750v91c-75.4,0-136.5,61-136.5,136.5c0,24.8,6.6,48.1,18.4,68.2l-78.8,45.5
					c-19.3-33.4-30.5-72.4-30.5-113.7c0-20.8,2.8-41.3,8.1-60.6c5.1-18.6,12.7-36.4,22.2-52.7C1090.6,795.8,1164.4,750,1248.5,750
					L1248.5,750z"/>
			</g>
			<g>
				<path class="st10" d="M981.8,607.3c5.7,5.5,8.9,13.1,8.9,21.4c0,16.7-13.6,30.3-30.3,30.3c-16.7,0-30.3-13.6-30.3-30.3
					c0-16.7,13.6-30.3,30.3-30.3C968.8,598.4,976.4,601.8,981.8,607.3z"/>
			</g>
			<g>
				<path class="st10" d="M1118.3,513.7c-5.5,5.7-13.1,8.9-21.4,8.9s-15.9-3.4-21.4-8.9c-5.7-5.5-8.9-13.1-8.9-21.4
					c0-16.7,13.6-30.3,30.3-30.3c16.7,0,30.3,13.6,30.3,30.3C1127.2,500.6,1123.8,508.2,1118.3,513.7z"/>
			</g>
			<g>
				<path class="st10" d="M1209.3,561.8c5.7,5.5,8.9,13.1,8.9,21.4c0,16.7-13.6,30.3-30.3,30.3c-16.7,0-30.3-13.6-30.3-30.3
					c0-8.3,3.4-15.9,8.9-21.4c5.5-5.7,13.1-8.9,21.4-8.9C1196.2,552.9,1203.8,556.3,1209.3,561.8z"/>
			</g>
			<g>
				<path class="st10" d="M1385,295.1c50.2,0,91,40.7,91,91s-40.7,91-91,91c-25.2,0-47.9-10.2-64.2-26.7
					c-13.1-13.1-22.2-29.9-25.4-49.1c-0.9-4.9-1.3-10-1.3-15.2C1294,335.9,1334.7,295.1,1385,295.1L1385,295.1z"/>
			</g>
		</g>
		<g>
			<path d="M1400.1,788.3V491.1c51.4-7.4,91-51.5,91-105c0-58.6-47.6-106.1-106.1-106.1c-58.6,0-106.1,47.6-106.1,106.1H551.1v606.5
				h455.6c8,126.6,113.1,227.4,241.8,227.4c133.8,0,242.6-108.8,242.6-242.6C1491.1,901,1455.5,832.8,1400.1,788.3z M1385,310.3
				c41.9,0,75.8,33.9,75.8,75.8s-33.9,75.8-75.8,75.8s-75.8-33.9-75.8-75.8S1343.1,310.3,1385,310.3z M581.4,416.4h702
				c3.6,12.1,9.5,23.3,16.9,33.2l-92.7,92.7c-5.9-2.8-12.5-4.5-19.5-4.5s-13.6,1.7-19.5,4.5l-30.5-30.5c2.8-5.9,4.5-12.5,4.5-19.5
				c0-25-20.5-45.5-45.5-45.5c-25,0-45.5,20.5-45.5,45.5c0,7,1.7,13.6,4.5,19.5l-76,76c-5.9-2.8-12.5-4.5-19.5-4.5
				c-25,0-45.5,20.5-45.5,45.5s20.5,45.5,45.5,45.5s45.5-20.5,45.5-45.5c0-7-1.7-13.6-4.5-19.5l76-76c5.9,2.8,12.5,4.5,19.5,4.5
				s13.6-1.7,19.5-4.5l30.5,30.5c-2.8,5.9-4.5,12.5-4.5,19.5c0,25,20.5,45.5,45.5,45.5c25,0,45.5-20.5,45.5-45.5
				c0-7-1.7-13.6-4.5-19.5l92.7-92.7c13.8,10.4,30.3,17.4,48.3,20.1v276.7c-35.8-20.8-77.1-32.8-121.3-32.8
				c-72.4,0-137.4,32-181.9,82.6V750h-91v181.9h34.7c-1.9,9.9-3,20.1-3.6,30.3H581.4V416.4z M1187.9,568c8.3,0,15.2,6.8,15.2,15.2
				c0,8.3-6.8,15.2-15.2,15.2c-8.3,0-15.2-6.8-15.2-15.2C1172.7,574.9,1179.5,568,1187.9,568z M1081.7,492.2
				c0-8.3,6.8-15.2,15.2-15.2s15.2,6.8,15.2,15.2c0,8.3-6.8,15.2-15.2,15.2S1081.7,500.6,1081.7,492.2z M975.6,628.7
				c0,8.3-6.8,15.2-15.2,15.2c-8.3,0-15.2-6.8-15.2-15.2c0-8.3,6.8-15.2,15.2-15.2C968.8,613.5,975.6,620.4,975.6,628.7z
				 M1248.5,1098.7c-66.9,0-121.3-54.4-121.3-121.3s54.4-121.3,121.3-121.3c66.9,0,121.3,54.4,121.3,121.3
				S1315.4,1098.7,1248.5,1098.7z M1036.2,860.3c-7.2,13.1-13.3,26.9-18,41.3h-12.3V780.3h30.3V860.3z M1233.3,765.9v60.6
				c-76.6,7.6-136.5,72.4-136.5,150.9c0,22.2,4.9,43.2,13.5,62.2l-52.7,30.3c-13.6-28-21.6-59.3-21.6-92.7
				C1036.2,865.4,1123.4,773.7,1233.3,765.9L1233.3,765.9z M1248.5,1189.7c-73,0-137.4-37-175.7-93.2l52.9-30.5
				c27.5,38.1,72.4,63.1,122.8,63.1c50.4,0,95.3-25,122.8-63.1l52.9,30.5C1385.9,1152.7,1321.5,1189.7,1248.5,1189.7z
				 M1439.2,1070.1l-52.7-30.3c8.5-19,13.5-40,13.5-62.2c0-78.5-59.9-143.3-136.5-150.9v-60.6c109.9,7.8,197.1,99.5,197.1,211.5
				C1460.8,1010.6,1452.8,1042,1439.2,1070.1L1439.2,1070.1z"/>
			<path d="M1248.5,886.4c-50.2,0-91,40.7-91,91c0,50.2,40.7,91,91,91c50.2,0,91-40.7,91-91C1339.5,927.2,1298.7,886.4,1248.5,886.4
				z M1248.5,1038c-33.4,0-60.6-27.3-60.6-60.6s27.3-60.6,60.6-60.6c33.4,0,60.6,27.3,60.6,60.6S1281.9,1038,1248.5,1038z"/>
			<path d="M611.7,446.8H642v30.3h-30.3V446.8z"/>
			<path d="M672.4,446.8h212.3v30.3H672.4V446.8z"/>
			<path d="M611.7,507.4H642v30.3h-30.3V507.4z"/>
			<path d="M672.4,507.4h212.3v30.3H672.4V507.4z"/>
			<path d="M611.7,568H642v30.3h-30.3V568z"/>
			<path d="M672.4,568h212.3v30.3H672.4V568z"/>
			<path d="M611.7,628.7H642V659h-30.3V628.7z"/>
			<path d="M672.4,628.7h212.3V659H672.4V628.7z"/>
			<path d="M611.7,931.9h91V780.3h-91V931.9z M642,810.6h30.3v91H642V810.6z"/>
			<path d="M733,931.9h91V810.6h-91V931.9z M763.3,841h30.3v60.6h-30.3V841z"/>
			<path d="M854.3,931.9h91V689.3h-91V931.9z M884.6,719.7H915v181.9h-30.3V719.7z"/>
		</g>
	</g>
</g>
</svg>
